<?xml version="1.0" standalone="no"?>
<!DOCTYPE svg PUBLIC "-//W3C//DTD SVG 20010904//EN"
 "http://www.w3.org/TR/2001/REC-SVG-20010904/DTD/svg10.dtd">
<svg version="1.0" xmlns="http://www.w3.org/2000/svg"
 width="376.000000pt" height="382.000000pt" viewBox="0 0 376.000000 382.000000"
 preserveAspectRatio="xMidYMid meet">

<g transform="translate(0.000000,382.000000) scale(0.100000,-0.100000)"
fill="#000000" stroke="none">
<path d="M2635 2989 c-374 -242 -689 -445 -700 -450 -17 -8 -130 56 -719 411
-384 232 -701 418 -704 415 -4 -4 -49 -1674 -74 -2793 -2 -111 0 -141 10 -137
6 2 334 194 728 425 394 231 720 420 725 420 5 0 336 -178 735 -396 399 -218
728 -394 731 -391 6 7 -40 2937 -47 2937 -3 -1 -311 -199 -685 -441z m-572
-884 c169 -99 303 -183 299 -186 -10 -10 -668 -398 -686 -405 -14 -6 -16 37
-16 410 l0 416 48 -27 c27 -16 186 -109 355 -208z"/>
<path d="M1450 3365 l0 -55 455 0 455 0 0 55 0 55 -455 0 -455 0 0 -55z"/>
<path d="M1560 3105 l0 -55 330 0 330 0 0 55 0 55 -330 0 -330 0 0 -55z"/>
<path d="M1690 2845 l0 -55 200 0 200 0 0 55 0 55 -200 0 -200 0 0 -55z"/>
<path d="M1700 1008 l0 -55 83 -6 c45 -4 135 -7 200 -7 l117 0 0 55 0 55 -93
0 c-52 0 -142 3 -200 7 l-107 6 0 -55z"/>
<path d="M1570 748 l0 -55 212 -6 c116 -4 264 -7 330 -7 l118 0 0 55 0 55 -97
0 c-54 0 -203 3 -330 7 l-233 6 0 -55z"/>
<path d="M1430 485 l0 -55 118 0 c64 0 269 -3 455 -7 l337 -6 0 55 0 55 -322
6 c-178 4 -383 7 -455 7 l-133 0 0 -55z"/>
</g>
</svg>
